
<svg width="61px" height="61px" viewBox="0 0 61 61" version="1.1" xmlns="http://www.w3.org/2000/svg" xmlns:xlink="http://www.w3.org/1999/xlink">
    <!-- Generator: Sketch 46.2 (44496) - http://www.bohemiancoding.com/sketch -->
    <desc>Created with Sketch.</desc>
    <defs></defs>
    <g id="Page-1" stroke="none" stroke-width="1" fill="none" fill-rule="evenodd">
        <g id="Group-2">
            <g id="test" fill="#8AB211">
                <path d="M30.5,0.343 C47.155,0.343 60.656,13.845 60.656,30.5 C60.656,47.155 47.155,60.656 30.5,60.656 C13.845,60.656 0.344,47.155 0.344,30.5 C0.344,13.845 13.845,0.343 30.5,0.343 Z" id="Shape"></path>
            </g>
            <g id="Group" transform="translate(19.000000, 23.000000)" fill="#FFFFFF">
                <g id="test">
                    <polygon id="Shape" points="22.707 1.706 11.707 12.707 11.5 12.5 11.293 12.707 0.293 1.706 1.707 0.292 11.5 10.085 21.293 0.292"></polygon>
                </g>
                <g id="test" transform="translate(0.000000, 6.000000)">
                    <polygon id="Shape" points="22.707 1.706 11.707 12.707 11.5 12.5 11.293 12.707 0.293 1.706 1.707 0.292 11.5 10.085 21.293 0.292"></polygon>
                </g>
            </g>
        </g>
    </g>
</svg>